HIERARCHY
ROOT Bip001_Pelvis
{
  OFFSET -7.25697 94.004 -3.48878
  CHANNELS 6 Xposition Yposition Zposition Zrotation Xrotation Yrotation
  JOINT Bip001_Spine
  {
    OFFSET 1.44608e-005 10.4157 -0.0118244
    CHANNELS 3 Zrotation Xrotation Yrotation
    JOINT Bip001_L_Thigh
    {
      OFFSET 11.2582 -10.4157 0.0118432
      CHANNELS 3 Zrotation Xrotation Yrotation
      JOINT Bip001_L_Calf
      {
        OFFSET -0.720717 -44.8687 0.366937
        CHANNELS 3 Zrotation Xrotation Yrotation
        JOINT Bip001_L_Foot
        {
          OFFSET -0.664439 -41.3745 -3.62995
          CHANNELS 3 Zrotation Xrotation Yrotation
          JOINT Bip001_L_Toe0
          {
            OFFSET 0.0541047 -10.4146 13.4033
            CHANNELS 3 Zrotation Xrotation Yrotation
            End Site
            {
              OFFSET -1.04503e-005 0 7.70137
            }
          }
        }
      }
    }
    JOINT Bip001_R_Thigh
    {
      OFFSET -11.2582 -10.4156 0.0118122
      CHANNELS 3 Zrotation Xrotation Yrotation
      JOINT Bip001_R_Calf
      {
        OFFSET 0.72059 -44.8687 0.36676
        CHANNELS 3 Zrotation Xrotation Yrotation
        JOINT Bip001_R_Foot
        {
          OFFSET 0.664321 -41.3745 -3.62979
          CHANNELS 3 Zrotation Xrotation Yrotation
          JOINT Bip001_R_Toe0
          {
            OFFSET -0.05417 -10.4146 13.4033
            CHANNELS 3 Zrotation Xrotation Yrotation
            End Site
            {
              OFFSET -1.04873e-005 0 7.70137
            }
          }
        }
      }
    }
    JOINT Bip001_Spine1
    {
      OFFSET 1.90638e-005 14.8539 1.10727
      CHANNELS 3 Zrotation Xrotation Yrotation
      JOINT Bip001_Spine2
      {
        OFFSET 2.28934e-005 14.7848 -1.7233
        CHANNELS 3 Zrotation Xrotation Yrotation
        JOINT Bip001_Neck
        {
          OFFSET 2.24514e-005 15.6905 -0.498826
          CHANNELS 3 Zrotation Xrotation Yrotation
          JOINT Bip001_L_Clavicle
          {
            OFFSET 6.17691 -0.000591152 0.00852867
            CHANNELS 3 Zrotation Xrotation Yrotation
            JOINT Bip001_L_UpperArm
            {
              OFFSET 11.773 -0.0611878 0.00197697
              CHANNELS 3 Zrotation Xrotation Yrotation
              JOINT Bip001_L_Forearm
              {
                OFFSET 26.4515 0.0817566 -2.1958
                CHANNELS 3 Zrotation Xrotation Yrotation
                JOINT Bip001_L_Hand
                {
                  OFFSET 32.8677 0.156744 1.67112
                  CHANNELS 3 Zrotation Xrotation Yrotation
                  JOINT Bip001_L_Finger0
                  {
                    OFFSET 6.16268 -2.25225 6.01674
                    CHANNELS 3 Zrotation Xrotation Yrotation
                    End Site
                    {
                      OFFSET 4.30499 -1.46662 0.618148
                    }
                  }
                  JOINT Bip001_L_Finger1
                  {
                    OFFSET 11.2958 -0.718373 -0.201963
                    CHANNELS 3 Zrotation Xrotation Yrotation
                    End Site
                    {
                      OFFSET 6.31953 -0.405162 -0.0802303
                    }
                  }
                }
              }
            }
          }
          JOINT Bip001_R_Clavicle
          {
            OFFSET -6.17691 -0.000574027 0.00851165
            CHANNELS 3 Zrotation Xrotation Yrotation
            JOINT Bip001_R_UpperArm
            {
              OFFSET -11.773 -0.0611516 0.00194365
              CHANNELS 3 Zrotation Xrotation Yrotation
              JOINT Bip001_R_Forearm
              {
                OFFSET -26.4514 0.0822335 -2.19736
                CHANNELS 3 Zrotation Xrotation Yrotation
                JOINT Bip001_R_Hand
                {
                  OFFSET -32.8679 0.156816 1.67144
                  CHANNELS 3 Zrotation Xrotation Yrotation
                  JOINT Bip001_R_Finger0
                  {
                    OFFSET -6.16272 -2.25224 6.0167
                    CHANNELS 3 Zrotation Xrotation Yrotation
                    End Site
                    {
                      OFFSET -4.30501 -1.46661 0.618134
                    }
                  }
                  JOINT Bip001_R_Finger1
                  {
                    OFFSET -11.2958 -0.718343 -0.201994
                    CHANNELS 3 Zrotation Xrotation Yrotation
                    End Site
                    {
                      OFFSET -6.31955 -0.405145 -0.0802476
                    }
                  }
                }
              }
            }
          }
          JOINT Bip001_Head
          {
            OFFSET 1.11782e-005 11.4912 2.09908
            CHANNELS 3 Zrotation Xrotation Yrotation
            End Site
            {
              OFFSET 2.95144e-005 21.2823 -2.83069e-005
            }
          }
        }
      }
    }
  }
}
MOTION
Frames:	13
Frame Time:	0.0333333
-7.93731 93.5784 -3.24113 -1.80982 5.00301 -0.458705 0.43076 -0.344213 1.07182 7.69868 -26.0312 -1.07104 0.225798 39.1488 -0.55496 -3.01785 -10.5456 3.88746 -1.33807e-008 7.73982e-009 2.1278e-007 1.57472 -22.8879 3.43712 -0.191477 40.0412 0.698051 12.3695 -33.0273 -5.64139 6.18556e-007 -2.17276e-007 1.27651e-006 0.862438 -0.680387 2.14567 0.862455 -0.680416 2.14566 -10.7532 -12.2284 -7.95772 -20.6938 15.1896 -2.73708 -38.6231 25.5922 4.82023 -2.53487 0.673431 -26.4609 3.52192 17.3486 -6.68577 9.54166e-015 -6.36111e-015 -1.59028e-015 6.36111e-015 -6.36111e-015 -1.59028e-015 35.1464 20.8514 15.8215 45.0763 48.7721 -30.3085 4.31281 2.20777 53.9208 -17.8938 -22.0931 -10.7306 6.36111e-015 -6.36111e-015 -3.18055e-015 1.59028e-015 -9.54167e-015 -3.18055e-015 -1.75363 8.0347 -1.42099 
-7.89435 93.4284 -3.07483 -1.92518 5.93937 -0.521938 0.440391 -0.558218 1.39788 8.12426 -27.1706 -0.11316 0.235891 39.9476 -0.561387 -2.441 -10.3733 3.72086 -1.33807e-008 7.73982e-009 2.1278e-007 1.12772 -23.9733 2.30925 -0.201577 40.67 0.704591 13.5335 -33.0063 -3.89846 6.18556e-007 -2.17276e-007 1.27651e-006 0.89387 -1.10554 2.80048 0.893889 -1.10557 2.80049 -12.0877 -12.1429 -9.66284 -19.6167 14.8904 -1.55578 -38.961 26.5963 4.3614 -2.58052 0.698101 -26.9771 4.7433 17.6119 -7.42911 0 0 -1.59028e-015 0 0 -3.18055e-015 35.5315 21.6096 16.9012 48.5304 48.9 -33.8084 4.31746 2.2153 54.0089 -17.2952 -22.0991 -10.8493 3.18055e-015 3.18055e-015 -1.59028e-015 1.59028e-015 0 -3.18055e-015 -1.09524 8.33168 -2.05209 
-7.84679 93.3406 -2.87284 -2.23536 7.1656 -0.683667 0.429651 -0.873078 1.64511 9.19554 -28.3935 1.87407 0.243256 40.5191 -0.566144 -1.96841 -9.87689 2.53954 -1.33807e-008 7.73982e-009 2.1278e-007 1.0295 -25.2306 1.6302 -0.209652 41.1643 0.70988 14.4846 -32.5708 -2.36016 6.18556e-007 -2.17276e-007 1.27651e-006 0.88435 -1.73353 3.29723 0.884391 -1.73353 3.29722 -12.349 -11.4806 -11.4863 -19.4322 13.8345 -0.337995 -39.3245 27.5493 4.59742 -2.63465 0.728055 -27.5919 6.9131 16.5457 -8.17804 -0 0 3.18055e-015 3.18055e-015 3.18056e-015 1.59028e-015 35.4385 22.1633 18.6587 51.5121 49.5915 -37.1363 4.29163 2.18381 53.6019 -15.1978 -21.7273 -10.4217 1.59028e-015 -3.18055e-015 -0 0 0 -1.59028e-015 -1.12826 8.30963 -2.48788 
-7.79576 93.2503 -2.59284 -2.65586 8.59408 -1.14555 0.371641 -1.22335 1.77879 10.2599 -29.6758 3.18454 0.257834 41.0955 -0.581763 -2.0967 -9.86957 1.26563 -1.33807e-008 7.73982e-009 2.1278e-007 1.58465 -26.6265 2.25048 -0.216439 41.574 0.714366 15.0748 -32.0055 -1.83428 6.18556e-007 -2.17276e-007 1.27651e-006 0.781268 -2.43457 3.56666 0.781289 -2.43462 3.56666 -12.1903 -9.90277 -13.0962 -19.2859 11.9156 0.417955 -39.3811 28.2027 5.20145 -2.67289 0.749686 -28.0288 9.62994 15.0959 -8.83764 -3.18055e-015 0 3.18055e-015 -6.36111e-015 -3.18056e-015 3.18055e-015 35.8869 22.3208 21.3623 53.3463 49.3051 -40.4833 4.2661 2.15271 53.1998 -11.0315 -19.7515 -9.1581 -7.95139e-016 -9.54166e-015 -7.95139e-016 -7.95139e-016 -9.54167e-015 -0 0.0869444 7.94073 -3.41764 
-7.7567 93.132 -2.10387 -2.97871 9.75676 -2.23591 0.320862 -1.42398 1.89789 11.2399 -30.5418 4.25392 0.271316 41.7706 -0.594285 -2.08621 -10.2438 0.679348 -1.33807e-008 7.73982e-009 2.1278e-007 2.70053 -27.8074 4.6142 -0.223147 42.0038 0.721894 15.5964 -31.6482 -2.11705 6.18556e-007 -2.17276e-007 1.27651e-006 0.68911 -2.83663 3.80541 0.689069 -2.83659 3.80538 -12.2681 -7.45588 -14.5166 -18.5774 9.31397 0.778269 -39.068 28.2809 5.25851 -2.66451 0.744899 -27.9329 12.8606 13.8268 -9.85174 -9.54166e-015 -6.36111e-015 -3.18055e-015 -6.36111e-015 0 -3.18055e-015 35.5243 21.3167 24.3537 55.0632 50.3101 -42.1126 4.23428 2.11398 52.6985 -6.61345 -17.7913 -7.92248 1.59028e-015 0 3.97569e-016 1.19271e-015 -3.18056e-015 5.96354e-016 0.927423 7.60971 -4.25595 
-7.71992 93.057 -1.37311 -3.22192 10.3759 -3.93249 0.328277 -1.40928 1.91587 11.9442 -30.7329 4.73167 0.282443 42.42 -0.60337 -2.41294 -10.9593 1.14421 -1.33807e-008 7.73982e-009 2.1278e-007 3.97449 -28.4064 7.6242 -0.228038 42.2998 0.728536 15.4619 -30.916 -2.96337 6.18556e-007 -2.17276e-007 1.27651e-006 0.703902 -2.80682 3.84133 0.703887 -2.80682 3.84125 -11.7518 -4.92429 -15.8897 -18.4309 6.44361 1.2544 -38.8054 27.0332 5.05507 -2.61814 0.718858 -27.4041 16.2098 12.9125 -11.2564 6.36111e-015 6.36111e-015 -3.18055e-015 3.18055e-015 3.18056e-015 -0 34.2898 20.0353 27.731 56.0273 52.883 -42.8505 4.23602 2.11604 52.7258 -3.46854 -17.0946 -7.3182 -5.96354e-016 -1.27222e-014 3.97569e-016 -7.95139e-016 -9.54167e-015 -9.93923e-017 1.16668 7.04982 -4.91442 
-7.62597 93.0993 -0.400674 -3.39424 10.3712 -5.94576 0.354402 -1.2661 1.75643 12.5056 -30.0879 5.22625 0.289179 42.9052 -0.602376 -2.74942 -11.4036 1.74813 -1.33807e-008 7.73982e-009 2.1278e-007 4.54584 -28.2229 9.29124 -0.228042 42.3197 0.732058 15.2646 -29.4492 -2.5066 6.18556e-007 -2.17276e-007 1.27651e-006 0.747794 -2.52091 3.52223 0.747855 -2.52089 3.52193 -10.3433 -2.32181 -17.1378 -19.0587 3.27944 1.57164 -39.1569 24.9506 5.51157 -2.56411 0.689179 -26.7911 19.4399 11.1058 -12.0754 -6.36111e-015 -3.18055e-015 6.36111e-015 -6.36111e-015 -3.18056e-015 3.18055e-015 31.777 17.916 30.7197 55.1262 55.1937 -41.1807 4.25427 2.1381 53.0117 -0.95542 -17.0654 -7.76417 6.62086e-032 3.18055e-015 -1.19271e-015 0 0 -1.59028e-015 1.58544 6.5857 -5.67165 
-7.46055 93.2033 0.724376 -3.54627 9.9806 -8.24436 0.358879 -1.12049 1.48386 12.9177 -28.98 5.7025 0.301898 43.5383 -0.589603 -3.05551 -11.8469 2.42845 -1.33807e-008 7.73982e-009 2.1278e-007 4.33028 -27.5878 9.29014 -0.226254 42.2423 0.734999 15.1566 -27.3154 -0.692286 6.18556e-007 -2.17276e-007 1.27651e-006 0.747054 -2.2314 2.97538 0.747024 -2.23139 2.97538 -8.90582 0.751628 -18.2996 -19.4977 -0.290307 1.58752 -39.8146 22.7008 6.75488 -2.5183 0.664633 -26.2741 21.7099 7.75136 -11.4875 0 0 -3.18055e-015 0 0 -6.36111e-015 29.1131 14.7447 33.2163 52.3943 55.034 -37.2215 4.28778 2.17934 53.543 1.06472 -16.2632 -8.76701 -7.95139e-016 -6.36111e-015 1.59028e-015 -7.95139e-016 -1.27222e-014 2.38542e-015 1.46404 6.61576 -6.17625 
-7.2454 93.3323 2.0244 -3.60498 9.2454 -10.6818 0.293506 -0.993384 1.14929 13.4217 -27.4278 7.0712 0.315807 44.1552 -0.559312 -3.15993 -11.6976 2.9334 -1.33807e-008 7.73982e-009 2.1278e-007 3.65984 -26.6782 8.52178 -0.225842 42.2858 0.745567 13.6494 -24.1851 1.12095 6.18556e-007 -2.17276e-007 1.27651e-006 0.607084 -1.98076 2.30423 0.607067 -1.98075 2.30424 -7.66235 4.41801 -19.1764 -19.6129 -4.27216 1.1914 -40.3435 19.9144 8.79827 -2.5007 0.656955 -26.0833 22.6975 4.25431 -10.0428 9.54166e-015 -6.36111e-015 -6.36111e-015 6.36111e-015 -3.18056e-015 -3.18055e-015 27.4699 10.8793 35.0971 48.6693 50.7837 -32.599 4.34658 2.25387 54.4923 2.8919 -12.2936 -10.2761 -3.97569e-016 -9.54166e-015 -7.95139e-016 -7.95139e-016 -9.54167e-015 -7.95139e-016 2.70927 5.33028 -6.8675 
-7.15008 93.4518 3.40071 -3.61333 8.55817 -13.2705 0.207347 -0.904501 0.696515 13.8194 -26.0981 8.31778 0.338043 45.1881 -0.537617 -3.20664 -11.2502 3.62468 -1.33807e-008 7.73982e-009 2.1278e-007 2.39249 -26.0123 6.05028 -0.229788 42.65 0.768418 11.1715 -20.8424 4.0755 6.18556e-007 -2.17276e-007 1.27651e-006 0.425774 -1.80657 1.39668 0.425788 -1.80657 1.39672 -6.18199 8.24475 -19.9528 -19.704 -8.45319 0.771499 -41.265 17.3301 11.2203 -2.5238 0.66757 -26.3366 23.7392 1.2182 -8.51364 -6.36111e-015 0 -0 -3.18055e-015 -6.36111e-015 -0 25.9632 6.53818 36.4666 46.1255 45.685 -28.512 4.42569 2.35866 55.8042 3.94113 -7.12166 -11.4968 5.96354e-016 -3.18055e-015 2.98177e-016 -6.95746e-016 0 -2.98177e-016 2.5145 5.64215 -7.14356 
-7.20067 93.5874 4.73775 -3.79286 8.0649 -16.1532 0.169238 -0.864198 0.225469 13.9827 -25.3334 8.3408 0.380898 46.9552 -0.526316 -3.83033 -10.9867 5.11457 -1.33807e-008 7.73983e-009 2.1278e-007 2.87744 -25.2984 7.75726 -0.235286 42.9804 0.781788 11.0152 -19.8162 5.23032 6.18556e-007 -2.17276e-007 1.27651e-006 0.342024 -1.72778 0.453546 0.342 -1.72779 0.453528 -4.88436 12.9615 -20.4797 -19.0283 -13.2498 -0.00451295 -42.788 15.1909 13.7308 -2.56352 0.688867 -26.7849 24.9665 -1.41959 -7.07591 -3.18055e-015 -3.18055e-015 3.18055e-015 1.76556e-031 -3.18056e-015 3.18055e-015 25.1115 1.21148 37.6686 44.9613 41.5253 -24.8937 4.49686 2.4577 57.0237 4.61885 -1.98112 -11.5295 -3.97569e-016 9.54166e-015 -7.95139e-016 0 6.36111e-015 -0 2.62582 6.2946 -7.78316 
-7.25875 93.6835 6.0465 -3.94907 7.79597 -19.458 0.181951 -0.842265 -0.176513 13.6078 -25.2175 7.05867 0.447508 49.3928 -0.507156 -5.05315 -10.3715 7.64678 -1.33807e-008 7.73982e-009 2.1278e-007 2.9792 -24.8634 8.29158 -0.239411 43.2574 0.795406 10.5829 -18.4818 7.09637 6.18556e-007 -2.17276e-007 1.27651e-006 0.362664 -1.68515 -0.350425 0.361377 -1.68514 -0.350532 -5.17895 16.5565 -20.9248 -17.5173 -16.5621 -0.333502 -44.0535 13.0741 16.2135 -2.59983 0.709177 -27.1982 25.9317 -3.88872 -5.85175 -3.18055e-015 3.18055e-015 -0 -3.53113e-031 6.36111e-015 3.18055e-015 25.6101 -2.69262 37.8438 43.7467 40.1903 -20.8588 4.57685 2.57504 58.4436 4.56027 0.833937 -10.3769 3.97569e-015 1.27222e-014 1.59028e-015 1.59028e-015 1.27222e-014 -0 4.22238 5.86242 -9.76549 
-7.18597 93.6612 7.15114 -3.68134 7.92051 -23.6646 0.203906 -0.869281 -0.440923 12.7559 -25.9649 5.26815 0.545408 52.4829 -0.510296 -6.63751 -9.74514 11.2631 -1.33807e-008 7.73982e-009 2.1278e-007 3.26231 -25.2761 9.71057 -0.250316 43.916 0.820212 10.2391 -17.3804 8.49303 6.18556e-007 -2.17276e-007 1.27651e-006 0.401211 -1.74018 -0.878853 0.401209 -1.74018 -0.878822 -5.47818 19.07 -21.5556 -16.3576 -18.9002 -0.354564 -45.2324 11.4247 18.2811 -2.60914 0.712908 -27.3056 26.5569 -6.3134 -4.68474 3.18055e-015 -3.18055e-015 3.18055e-015 1.76556e-031 -3.18056e-015 3.18055e-015 25.8354 -5.68061 37.3436 42.0973 40.2932 -16.1068 4.6738 2.72672 60.2435 4.17241 1.28779 -9.25182 -1.59028e-015 3.18055e-015 -0 1.59028e-015 -3.18056e-015 -0 7.84599 4.64494 -13.4409 
